<svg width="20" height="20" viewBox="0 0 20 20" fill="none" xmlns="http://www.w3.org/2000/svg">
<path d="M18.2199 20C17.9832 20.001 17.7485 19.9551 17.5296 19.865C17.3107 19.7748 17.1118 19.6421 16.9444 19.4747L11.3089 12.804C9.86906 13.8676 8.08048 14.3475 6.30173 14.1474C4.52298 13.9474 2.88556 13.0822 1.71778 11.7254C0.550004 10.3685 -0.0618444 8.62027 0.00494456 6.83116C0.0717335 5.04205 0.812234 3.34433 2.07792 2.07836C3.34362 0.812389 5.04097 0.0717495 6.82968 0.00494575C8.61839 -0.061858 10.3662 0.550113 11.7228 1.71815C13.0793 2.88619 13.9443 4.52395 14.1443 6.30309C14.3443 8.08224 13.8645 9.87125 12.8012 11.3114L19.4704 16.9231C19.7231 17.175 19.8953 17.4963 19.9652 17.8463C20.035 18.1963 19.9993 18.5591 19.8627 18.8887C19.726 19.2184 19.4945 19.5 19.1976 19.6979C18.9007 19.8957 18.5517 20.0009 18.1949 20H18.2199ZM11.3673 11.7784C11.4278 11.7789 11.4875 11.7926 11.5422 11.8185C11.5969 11.8444 11.6453 11.8819 11.6841 11.9285L17.5196 18.9077C17.7052 19.0707 17.9437 19.1605 18.1907 19.1605C18.4377 19.1605 18.6762 19.0707 18.8618 18.9077C19.0405 18.7266 19.1407 18.4825 19.1407 18.2281C19.1407 17.9737 19.0405 17.7295 18.8618 17.5485L11.9008 11.7117C11.8174 11.6405 11.7654 11.5393 11.7561 11.4301C11.7467 11.3209 11.7807 11.2123 11.8508 11.128C12.875 9.8892 13.383 8.30351 13.2693 6.70004C13.1556 5.09656 12.4289 3.59846 11.2401 2.51669C10.0513 1.43492 8.49169 0.852571 6.88499 0.890513C5.27829 0.928455 3.7479 1.58378 2.61147 2.72045C1.47505 3.85713 0.819896 5.38787 0.781962 6.99492C0.744029 8.60198 1.32626 10.1619 2.40779 11.351C3.48932 12.54 4.98706 13.2669 6.59018 13.3806C8.1933 13.4944 9.77866 12.9863 11.0172 11.9618C11.0558 11.9047 11.108 11.858 11.1691 11.8259C11.2302 11.7939 11.2983 11.7776 11.3673 11.7784Z" fill="white"/>
</svg>
